<svg width="484" height="483" viewBox="0 0 484 483" fill="none" xmlns="http://www.w3.org/2000/svg">
<g clip-path="url(#clip0_1108_4)">
<rect x="64" y="49" width="360" height="388" rx="180" fill="white"/>
<path fill-rule="evenodd" clip-rule="evenodd" d="M218.902 0.952232C174.457 4.85623 126.634 24.3392 90.4021 53.3022C80.8361 60.9492 62.0691 79.6372 54.2091 89.3432C15.1891 137.525 -4.37187 200.551 0.82413 261.343C10.4891 374.394 95.0891 464.335 207.902 481.495C223.729 483.902 258.878 483.927 274.96 481.541C377.658 466.309 458.634 390.188 478.845 289.882C493.815 215.59 474.053 140.872 424.086 82.8432C389.741 42.9572 337.765 13.3122 285.69 3.90923C264.32 0.0492318 240.957 -0.984768 218.902 0.952232ZM264.902 101.166C289.704 107.601 305.852 115.617 324.936 130.968C362.958 161.552 385.035 202.558 385.17 242.848C385.206 253.413 384.889 256.085 383.125 260.071C378.415 270.72 364.524 272.143 357.778 262.668C355.66 259.694 355.513 258.577 355.737 247.12C355.997 233.801 354.999 226.041 351.714 215.843C343.59 190.617 321.76 163.409 295.585 145.884C285.682 139.253 273.173 133.377 263.186 130.664C256.955 128.971 252.295 128.526 239.836 128.432C222.586 128.301 220.622 127.712 216.858 121.539C212.025 113.612 216.045 103.794 225.586 100.225C230.42 98.4172 256.732 99.0472 264.902 101.166ZM154.271 129.864C163.043 134.282 179.445 153.774 185.048 166.439C186.211 169.069 187.389 174.045 187.666 177.497C188.34 185.882 185.368 191.942 175.429 202.449C171.323 206.791 167.542 211.782 167.027 213.542C163.782 224.632 176.216 243.334 207.82 274.901C239.451 306.494 256.475 317.89 270.696 316.988C272.084 316.9 276.58 313.44 282.082 308.227C287.082 303.488 293.163 298.731 295.594 297.655C306.511 292.826 319.229 296.732 337.646 310.569C359.496 326.985 363.577 342.984 350.198 359.786C343.848 367.761 330.559 379.988 325.902 382.14C319.614 385.046 305.787 385.609 294.894 383.401C270.422 378.443 242.352 365 215.402 345.333C173.754 314.938 136.859 273.117 115.886 232.525C99.3851 200.59 94.0291 171.065 102.123 156.663C105.36 150.904 124.824 132.565 131.032 129.425C135.584 127.123 137.392 126.763 142.902 127.061C147.252 127.296 151.013 128.224 154.271 129.864ZM260.861 157.776C277.607 163.386 288.866 170.305 301.218 182.578C313.732 195.01 323.205 211.115 327.831 227.823C332.225 243.693 328.963 252.957 318.155 255.297C309.59 257.152 303.261 251.281 300.057 238.509C295.823 221.625 288.829 210.106 276.346 199.455C267.492 191.901 259.418 187.745 247.281 184.497C235.668 181.389 232.539 179.705 230.537 175.486C226.869 167.756 229.054 160.255 236.313 155.664C240.466 153.038 248.881 153.762 260.861 157.776Z" fill="#7BAF3B"/>
</g>
<defs>
<clipPath id="clip0_1108_4">
<rect width="484" height="483" fill="white"/>
</clipPath>
</defs>
</svg>
