<svg width="24" height="24" viewBox="0 0 24 24" fill="none" xmlns="http://www.w3.org/2000/svg">
<path d="M14 12.2172L4.88424 21.3324C3.99412 22.2225 2.55704 22.2225 1.66692 21.3324C1.4555 21.1213 1.28777 20.8705 1.17334 20.5945C1.0589 20.3185 1 20.0227 1 19.7239C1 19.4251 1.0589 19.1292 1.17334 18.8532C1.28777 18.5772 1.4555 18.3264 1.66692 18.1153L10.7827 9" stroke="#F5B51B" stroke-width="2" stroke-linecap="round" stroke-linejoin="round"/>
<path d="M17 15L22 10" stroke="#F5B51B" stroke-width="2" stroke-linecap="round" stroke-linejoin="round"/>
<path d="M21 11.6132L19.6356 10.2383C18.9807 9.57837 18.6205 8.69844 18.6205 7.76352V6.8176L15.6516 3.80385C15.0879 3.23257 14.4179 2.77913 13.6799 2.46957C12.9418 2.16001 12.1504 2.00043 11.351 2H8L9.0042 2.90192C9.71746 3.5392 10.2886 4.32158 10.6799 5.19748C11.0713 6.07338 11.2739 7.02292 11.2746 7.9835V9.69936L13.4576 11.8992H16.1537L18.6205 14" stroke="#F5B51B" stroke-width="2" stroke-linecap="round" stroke-linejoin="round"/>
</svg>
