<?xml version="1.0" encoding="utf-8"?>
<!-- Generator: Adobe Illustrator 24.0.2, SVG Export Plug-In . SVG Version: 6.00 Build 0)  -->
<svg version="1.1" id="Слой_1" xmlns="http://www.w3.org/2000/svg" xmlns:xlink="http://www.w3.org/1999/xlink" x="0px" y="0px"
	 viewBox="0 0 300.47 107.72" style="enable-background:new 0 0 300.47 107.72;" xml:space="preserve">
<style type="text/css">
	.st0{fill:#333333;}
	.st1{fill:#F5B51B;}
	.st2{fill-rule:evenodd;clip-rule:evenodd;fill:#F5B51B;}
	.st3{fill:#FFFFFF;}
	.st4{fill-rule:evenodd;clip-rule:evenodd;fill:#666666;}
</style>
<g>
	<g>
		<path class="st0" d="M296.37,46c-1.56-1.56-3.63-2.64-6-3.13l-98.91-20.36c-0.77-0.16-1.57,0.05-2.16,0.57l-4.98-0.64l-0.01,3.15
			l-8.23-0.47l-12.29,9.43l-10.13,6.57l-16.5,1.79l-7.38-11.04l-14.73-5.69c0,0,0.92-4.02-0.4-3.74l-5.63,0.98
			c-0.59-0.52-1.39-0.73-2.16-0.57L10.09,42.87C7.73,43.36,5.66,44.44,4.1,46c-1.94,1.94-2.96,4.41-2.96,7.13v30.88
			c0,2.04,0.59,3.97,1.7,5.63c0.12,0.31,0.31,0.59,0.55,0.83l0.73,0.73c1.64,1.64,3.87,2.75,6.3,3.14c0.06,0.01,0.12,0.02,0.18,0.02
			l137.82,11.82l0.21,0.02c0.07,0.01,0.14,0.01,0.21,0.01c0.07,0,0.14,0,0.21-0.01l140.73-11.82l0.28-0.04
			c2.42-0.39,4.66-1.5,6.31-3.15l0.73-0.74c0.23-0.23,0.4-0.5,0.53-0.79c1.12-1.66,1.71-3.6,1.71-5.64V53.13
			C299.34,50.41,298.31,47.94,296.37,46z"/>
	</g>
	<path class="st1" d="M148.28,30.65c-0.18,0-0.23-0.12-0.28-0.34l-3.72-14.73l-24.42-4.14c-0.07-0.01-0.15-0.03-0.21-0.1
		c-0.07-0.07-0.1-0.14-0.1-0.21V10.2c0-1.3,0.22-0.35,0.31-0.34l59.48,0.15c0.19-0.01,0.28,0.12,0.28,0.34v0.92
		c0,0.2-0.1,0.28-0.28,0.31l-26.58,3.99l-2.98,14.73c-0.04,0.22-0.11,0.34-0.31,0.34h-0.65H148.28z"/>
	<polygon class="st2" points="19.91,52.49 112.93,43.43 129.98,51.55 135.39,51.75 112.87,33.72 19.91,52.01 	"/>
	<polygon class="st2" points="280.26,52.31 185.83,43.25 168.78,51.36 163.36,51.57 185.89,33.54 280.26,51.83 	"/>
	<path class="st1" d="M289.36,47.77l-97.68-20.11l-4.37,3.86l101.16,20.66c0.49,0.1,0.92,0.29,1.18,0.56
		c0.11,0.11,0.18,0.25,0.18,0.41v30.88c0,0.19-0.07,0.35-0.19,0.47l0,0c-0.25,0.25-0.63,0.41-1.06,0.48L149,96.66L11.91,84.96
		c-0.44-0.07-0.82-0.24-1.06-0.48l0,0c-0.12-0.12-0.19-0.28-0.19-0.47V53.13c0-0.16,0.07-0.3,0.18-0.41
		c0.27-0.27,0.7-0.45,1.18-0.56l99.03-20.3l-4.37-3.86L11.11,47.77c-1.32,0.27-2.57,0.87-3.47,1.77c-0.92,0.92-1.5,2.13-1.5,3.6
		v30.88c0,1.47,0.58,2.7,1.52,3.64v0.01c0.92,0.92,2.19,1.52,3.55,1.73l137.64,11.8l140.42-11.8c1.36-0.22,2.63-0.82,3.55-1.73
		v-0.01c0.94-0.94,1.52-2.17,1.52-3.64V53.13c0-1.47-0.57-2.67-1.5-3.6C291.93,48.63,290.69,48.04,289.36,47.77"/>
	<polygon class="st3" points="50.06,61.1 42.93,61.1 42.93,81.73 37.6,81.73 37.6,61.1 30.48,61.1 30.48,56.74 50.06,56.74 	"/>
	<polygon class="st3" points="68.64,81.73 53.84,81.73 53.84,56.74 68.05,56.74 68.05,61.1 59.17,61.1 59.17,66.98 67.42,66.98 
		67.42,71.32 59.17,71.32 59.17,77.37 68.64,77.37 	"/>
	<path class="st3" d="M93.16,81.73h-6.32l-4.49-8.29c-0.16-0.3-0.32-0.84-0.5-1.63h-0.06c-0.09,0.39-0.28,0.95-0.58,1.68l-4.5,8.24
		h-6.38l8.02-12.5l-7.32-12.48h6.49l3.73,7.65c0.3,0.62,0.56,1.31,0.78,2.06h0.06c0.23-0.68,0.5-1.39,0.83-2.15l4.11-7.56h5.95
		l-7.55,12.39L93.16,81.73z"/>
	<polygon class="st3" points="117.88,81.73 112.56,81.73 112.56,71.42 101.91,71.42 101.91,81.73 96.58,81.73 96.58,56.74 
		101.91,56.74 101.91,66.82 112.56,66.82 112.56,56.74 117.88,56.74 	"/>
	<path class="st3" d="M128.11,69.27c0,2.43,0.58,4.42,1.76,5.96c1.17,1.54,2.78,2.31,4.82,2.31c2.09,0,3.71-0.74,4.87-2.22
		c1.16-1.48,1.74-3.46,1.74-5.96c0-2.6-0.56-4.66-1.69-6.17c-1.13-1.51-2.72-2.26-4.77-2.26c-2.09,0-3.73,0.77-4.93,2.32
		C128.71,64.81,128.11,66.81,128.11,69.27 M122.51,69.57c0-3.91,1.15-7.1,3.43-9.56c2.28-2.46,5.3-3.68,9.06-3.68
		c3.57,0,6.44,1.19,8.62,3.56c2.17,2.38,3.26,5.43,3.26,9.16c0,3.89-1.13,7.05-3.4,9.48c-2.26,2.43-5.22,3.64-8.89,3.64
		c-3.58,0-6.49-1.17-8.73-3.52C123.63,76.29,122.51,73.27,122.51,69.57z"/>
	<path class="st3" d="M171.49,81.73h-5.32V61.21h-5.21c-1.3,9.29-2.51,15.1-3.63,17.41c-1.12,2.31-2.91,3.46-5.39,3.46
		c-1.06,0-2.05-0.16-2.97-0.48v-4.29c0.68,0.25,1.27,0.37,1.78,0.37c0.36,0,0.7-0.1,1.03-0.32c0.32-0.21,0.66-0.64,1.01-1.31
		c0.35-0.67,0.77-2.03,1.27-4.1c0.5-2.06,0.95-4.5,1.37-7.29l1.21-7.92h14.85V81.73z"/>
	<path class="st3" d="M181.69,69.27c0,2.43,0.58,4.42,1.76,5.96c1.17,1.54,2.78,2.31,4.82,2.31c2.09,0,3.71-0.74,4.87-2.22
		c1.16-1.48,1.74-3.46,1.74-5.96c0-2.6-0.56-4.66-1.69-6.17c-1.13-1.51-2.72-2.26-4.77-2.26c-2.09,0-3.73,0.77-4.93,2.32
		C182.29,64.81,181.69,66.81,181.69,69.27 M176.09,69.57c0-3.91,1.15-7.1,3.43-9.56c2.28-2.46,5.3-3.68,9.06-3.68
		c3.57,0,6.44,1.19,8.62,3.56c2.17,2.38,3.26,5.43,3.26,9.16c0,3.89-1.13,7.05-3.4,9.48c-2.26,2.43-5.22,3.64-8.89,3.64
		c-3.58,0-6.49-1.17-8.73-3.52C177.21,76.29,176.09,73.27,176.09,69.57z"/>
	<polygon class="st3" points="219.72,61.18 210.37,61.18 210.37,81.73 205.05,81.73 205.05,56.74 219.72,56.74 	"/>
	<path class="st3" d="M245.74,81.73h-5.05V67.52c0-1.48,0.06-2.8,0.18-3.99h-0.12c-0.17,0.38-0.57,1.06-1.19,2.03l-10.6,16.16h-5.44
		V56.74h5.05v14.24c0,1.72-0.04,2.87-0.14,3.45h0.07l11.47-17.7h5.78V81.73z"/>
	<path class="st3" d="M263.45,67.89v-7.05h-2.55c-2.73,0-4.1,1.15-4.1,3.44c0,1.08,0.37,1.96,1.11,2.62
		c0.74,0.66,1.73,0.99,2.97,0.99H263.45z M268.79,81.73h-5.34v-9.81h-1.74c-1.4,0-2.54,1.05-3.44,3.16l-2.76,6.65h-6.16l3.53-7.55
		c0.96-2.05,2.22-3.33,3.78-3.82v-0.08c-3.66-0.86-5.48-3-5.48-6.4c0-2.22,0.8-3.96,2.42-5.23c1.61-1.27,3.85-1.9,6.73-1.9h8.47
		V81.73z"/>
	<path class="st4" d="M148.34,35.63c-5.44,0.27-12.6-0.04-11.71-5.35l0.18-7.05c0.02-0.83-0.05-1.23-1.62-1.62
		c-1.8-0.45-3.63-0.83-5.5-1.2c-9.65-1.94-20.39-3.8-34.7-14.86c-1.65-1.33-2.79-2.62-4.51-4.03c1.8,17.96,22.32,23.38,33.58,28.38
		c1.45,0.97,3.78,1.94,3.84,3.84c0.22,2.28-0.07,0,0.15,1.57c0.39,2.87,1.62,4.05,4.68,6.04c1.6,1.26,14.24,12.1,15.61,12.3V35.63z"
		/>
	<path class="st4" d="M149.63,35.63c5.44,0.27,12.6-0.04,11.71-5.35l-0.18-7.05c-0.02-0.83,0.05-1.23,1.62-1.62
		c1.8-0.45,3.63-0.83,5.5-1.2c9.65-1.94,20.39-3.8,34.7-14.86c1.65-1.33,2.79-2.62,4.51-4.03c-1.8,17.96-22.32,23.38-33.58,28.38
		c-1.45,0.97-3.78,1.94-3.84,3.84c-0.22,2.28,0.07,0-0.15,1.57c-0.39,2.87-1.62,4.05-4.68,6.04c-1.6,1.26-14.24,12.1-15.61,12.3
		V35.63z"/>
</g>
</svg>
