<svg width="25" height="25" viewBox="0 0 25 25" fill="none" xmlns="http://www.w3.org/2000/svg">
<path d="M22.9167 17.625V20.75C22.9179 21.0401 22.8584 21.3273 22.7422 21.5931C22.626 21.8589 22.4555 22.0975 22.2418 22.2936C22.028 22.4898 21.7756 22.6391 21.5008 22.732C21.226 22.8249 20.9348 22.8595 20.6458 22.8334C17.4405 22.4851 14.3615 21.3898 11.6563 19.6354C9.13941 18.0361 7.00557 15.9023 5.40626 13.3854C3.64582 10.6679 2.55026 7.57397 2.20835 4.35419C2.18231 4.06613 2.21655 3.77581 2.30887 3.50171C2.40118 3.22761 2.54956 2.97574 2.74456 2.76212C2.93955 2.54851 3.17689 2.37784 3.44146 2.26098C3.70603 2.14412 3.99203 2.08363 4.28126 2.08335H7.40626C7.91179 2.07838 8.40188 2.25739 8.78518 2.58703C9.16848 2.91667 9.41884 3.37444 9.48959 3.87502C9.62149 4.87509 9.8661 5.85703 10.2188 6.8021C10.3589 7.17494 10.3892 7.58014 10.3062 7.96969C10.2231 8.35923 10.0301 8.7168 9.75001 9.00002L8.42709 10.3229C9.90996 12.9308 12.0692 15.0901 14.6771 16.5729L16 15.25C16.2832 14.97 16.6408 14.7769 17.0303 14.6939C17.4199 14.6108 17.8251 14.6411 18.1979 14.7813C19.143 15.1339 20.1249 15.3785 21.125 15.5104C21.631 15.5818 22.0931 15.8367 22.4235 16.2266C22.7538 16.6165 22.9294 17.1142 22.9167 17.625Z" stroke="#DE9D00" stroke-width="2" stroke-linecap="round" stroke-linejoin="round"/>
</svg>
