<svg width="107" height="25" viewBox="0 0 107 25" fill="none" xmlns="http://www.w3.org/2000/svg">
<g clip-path="url(#clip0)">
<path d="M27.1615 19.2128C21.0342 13.5925 16.9919 5.9443 11.6145 5.62949C19.5069 -0.574215 30.9019 8.12023 35.4837 12.1943C36.7549 13.3332 29.4295 21.2962 27.1615 19.2128Z" fill="url(#paint0_linear)"/>
<path d="M27.5913 24.3148C17.0834 20.6111 11.5139 8.07408 4.39886 8.07408C14.0197 -0.194438 30.7373 14.8148 30.7373 14.8148L27.5913 24.3148Z" fill="url(#paint1_linear)"/>
<path d="M25.6069 14.1944C22.0219 14.6203 18.4369 12.6851 14.8977 10.7314C22.7535 19.4074 32.2738 23.2129 40.157 15.9907C44.4187 9.6018 46.5587 1.97217 50.1528 1.54625C41.5471 -5.33338 36.2154 12.9629 25.6069 14.1944Z" fill="url(#paint2_linear)"/>
<path d="M27.7925 24.5926C33.5632 23.9074 37.322 20.2222 40.1479 15.9907C32.3103 23.2129 24.8386 17.0555 14.8885 10.7315C12.1449 9.20368 9.40135 7.66664 6.65776 7.23146C5.41745 7.04655 4.15352 7.10629 2.93562 7.40738C2.01615 7.71162 1.15589 8.1753 0.393229 8.77775C0.242851 8.89009 0.127751 9.04405 0.0617861 9.22108C-0.00417823 9.39811 -0.0181945 9.59068 0.0214248 9.77559C0.0610441 9.9605 0.15261 10.1299 0.285098 10.2633C0.417586 10.3968 0.585348 10.4886 0.768186 10.5278C8.10272 12.2129 14.6325 26.1574 27.7925 24.5926Z" fill="url(#paint3_linear)"/>
<path d="M60.2978 8.33293C60.1822 8.71279 59.9397 9.04013 59.6119 9.25885C59.27 9.47601 58.8722 9.58557 58.4688 9.57367C58.1864 9.58556 57.9049 9.5345 57.6441 9.4241C57.3834 9.3137 57.1498 9.14666 56.9598 8.93478C56.7611 8.7208 56.6062 8.46906 56.5042 8.19411C56.4021 7.91916 56.355 7.62646 56.3653 7.33293C56.3382 6.72856 56.5449 6.1373 56.9415 5.68478C57.1383 5.47915 57.3767 5.31894 57.6402 5.21507C57.9038 5.1112 58.1864 5.06613 58.4688 5.08293C58.8536 5.04363 59.2405 5.13273 59.5707 5.33665C59.9009 5.54058 60.1562 5.84816 60.2978 6.21256V6.32367H61.7062L61.6513 6.11071C61.5432 5.60993 61.3066 5.14684 60.9654 4.76811C60.6483 4.41262 60.2538 4.13681 59.8131 3.96256C59.1623 3.70585 58.4535 3.63831 57.7668 3.76755C57.0801 3.89679 56.4426 4.21768 55.9264 4.69404C55.5757 5.03868 55.3008 5.45431 55.1196 5.91381C54.9384 6.37331 54.8549 6.86633 54.8747 7.36071C54.8658 7.84825 54.959 8.33217 55.1482 8.78062C55.3373 9.22907 55.6181 9.63189 55.9721 9.96256C56.5906 10.521 57.3733 10.8579 58.1996 10.9215C59.026 10.9851 59.85 10.7718 60.5447 10.3144C61.1585 9.87365 61.581 9.21045 61.7245 8.46256V8.24959H60.3344L60.2978 8.33293Z" fill="white"/>
<path d="M81.0302 7.51812C80.5176 7.49136 80.0132 7.65611 79.6127 7.98108C79.4193 8.14613 79.2684 8.35619 79.1728 8.59325C79.0773 8.83031 79.0399 9.0873 79.064 9.34219C79.0572 9.57175 79.1042 9.79967 79.2011 10.0073C79.2981 10.2149 79.4423 10.3963 79.6218 10.5366C79.9832 10.8261 80.4324 10.9798 80.893 10.9718C81.2658 10.9724 81.6342 10.8902 81.9722 10.7311C82.1619 10.6457 82.3328 10.5229 82.4752 10.37C82.5122 10.4854 82.5712 10.5924 82.6489 10.6848C82.9324 11.0089 83.3806 10.9811 83.9293 10.8885H84.0847V9.96256H83.9018C83.8295 9.97862 83.7547 9.97862 83.6824 9.96256C83.6751 9.91035 83.6751 9.85737 83.6824 9.80515C83.676 9.70649 83.676 9.60752 83.6824 9.50886V7.65701C83.7056 7.37947 83.6561 7.10064 83.5389 6.84865C83.4217 6.59667 83.2409 6.38045 83.0147 6.22182C82.5298 5.91827 81.9656 5.76984 81.396 5.7959C80.7794 5.77938 80.1679 5.91273 79.6127 6.18478L79.4938 6.2496L79.7224 7.36071L79.9236 7.2496C80.1197 7.16073 80.3253 7.09546 80.5364 7.05516C80.8168 7.00046 81.1013 6.96949 81.3869 6.96256C81.6272 6.9558 81.8646 7.0167 82.0728 7.13849C82.1532 7.19082 82.2184 7.26383 82.2618 7.35005C82.3052 7.43627 82.3252 7.53262 82.3197 7.62923V7.81441C81.9184 7.61576 81.4769 7.51432 81.0302 7.51812ZM82.2191 8.78664V9.05516C82.1982 9.1594 82.1544 9.25758 82.0911 9.3425C82.0278 9.42741 81.9466 9.49691 81.8533 9.5459C81.6249 9.67727 81.366 9.74441 81.1034 9.74034C80.9291 9.74265 80.7577 9.69446 80.6095 9.60145C80.5516 9.56226 80.5049 9.50816 80.4744 9.44471C80.4438 9.38125 80.4305 9.31072 80.4358 9.24034C80.4388 9.15239 80.4608 9.06618 80.5003 8.98779C80.5398 8.9094 80.5958 8.84074 80.6644 8.78664C80.8206 8.65389 81.0183 8.58169 81.2223 8.58293H81.2863C81.609 8.57225 81.9294 8.64221 82.2191 8.78664Z" fill="white"/>
<path d="M86.1607 8.92566H88.0355V10.8794H89.4073V5.86084H88.0355V7.64788H86.1607V5.86084H84.8072V10.8794H86.1607V8.92566Z" fill="white"/>
<path d="M73.8694 10.9257C74.2238 10.9564 74.5773 10.8579 74.8662 10.6479C75.2436 10.2095 75.4487 9.646 75.4424 9.06454L75.6436 7.13862H76.8965V10.8423H78.2683V5.86084H74.4273L74.0706 8.99047C74.0665 9.23897 73.9971 9.48188 73.8694 9.69417C73.8694 9.69417 73.7231 9.81454 73.3115 9.75899H73.1104V10.8886H73.2658C73.4658 10.916 73.6676 10.9284 73.8694 10.9257Z" fill="white"/>
<path d="M58.8528 18.5553C58.9887 18.4452 59.0962 18.3035 59.1662 18.1423C59.2363 17.9811 59.2668 17.8051 59.2552 17.6293C59.2604 17.3973 59.2069 17.1679 59.0997 16.9627C59.0101 16.7979 58.8851 16.6555 58.7339 16.546C58.5674 16.4358 58.3809 16.3603 58.1852 16.3238C58.0041 16.2831 57.8209 16.2522 57.6365 16.2312H55.1398V21.2682H57.3439C57.5327 21.2783 57.722 21.2783 57.9109 21.2682C58.1029 21.2545 58.2929 21.2204 58.4779 21.1664C58.6636 21.1115 58.8395 21.0271 58.9992 20.9164C59.1536 20.7916 59.2786 20.6334 59.365 20.4534C59.4613 20.2418 59.5083 20.0105 59.5021 19.7775C59.5101 19.473 59.4202 19.1741 59.2461 18.9256C59.1392 18.7782 59.0058 18.6526 58.8528 18.5553ZM56.5025 19.1942H57.1884C57.3101 19.1837 57.4325 19.1837 57.5542 19.1942C57.6629 19.2041 57.7702 19.2259 57.8743 19.259C57.9533 19.2736 58.0247 19.3163 58.0755 19.3793C58.1179 19.459 58.1401 19.5481 58.1401 19.6386C58.1401 19.7291 58.1179 19.8182 58.0755 19.8979C58.0529 19.9298 58.0244 19.9569 57.9914 19.9776C57.9584 19.9982 57.9217 20.0121 57.8834 20.0182C57.7912 20.0491 57.6963 20.0709 57.5999 20.0831H56.5025V19.1942ZM57.1427 18.1201H56.5025V17.3608H57.1427C57.8834 17.3608 57.8834 17.6386 57.8834 17.7405C57.8834 17.8423 57.8834 18.1201 57.1427 18.1201Z" fill="white"/>
<path d="M78.3781 19.3422C78.2937 19.5754 78.1321 19.7717 77.9208 19.8978C77.7277 20.0242 77.5014 20.0888 77.2715 20.083C77.1034 20.0911 76.9354 20.064 76.7781 20.0034C76.6207 19.9429 76.4774 19.8502 76.357 19.7311C76.2292 19.6023 76.1304 19.4472 76.0672 19.2762C76.0041 19.1052 75.9781 18.9224 75.9912 18.7404C75.9795 18.5604 76.0071 18.3801 76.0719 18.2121C76.1367 18.0441 76.2371 17.8925 76.3661 17.7682C76.4864 17.6483 76.6295 17.5545 76.7867 17.4924C76.9439 17.4303 77.112 17.4013 77.2807 17.407C77.5108 17.403 77.7379 17.4605 77.9391 17.5737C78.1246 17.6731 78.2677 17.8378 78.3415 18.0367V18.157H79.7499V17.9348C79.6293 17.3789 79.3017 16.8915 78.8354 16.5737C78.3862 16.2551 77.8471 16.0926 77.2989 16.1107C76.8712 16.119 76.4502 16.22 76.0643 16.407C75.664 16.6207 75.3289 16.9408 75.0949 17.333C74.8327 17.7638 74.6993 18.2622 74.7108 18.7682C74.6906 19.1261 74.75 19.4842 74.8845 19.8159C75.019 20.1476 75.2253 20.4445 75.4882 20.6848C75.9526 21.079 76.5329 21.3064 77.1384 21.3315C77.7439 21.3567 78.3406 21.1781 78.8354 20.8237C79.3136 20.4928 79.6425 19.9833 79.7499 19.407V19.1941H78.4147L78.3781 19.3422Z" fill="white"/>
<path d="M94.6933 10.2776C94.9569 10.0355 95.1643 9.73713 95.3003 9.40408C95.4363 9.07103 95.4976 8.71157 95.4798 8.35163C95.4825 7.85141 95.3462 7.36049 95.0865 6.93496C94.8515 6.53373 94.5047 6.21164 94.0897 6.00904C93.6969 5.81684 93.2636 5.72467 92.8276 5.74052C92.1532 5.73952 91.5021 5.99003 90.9986 6.44422C90.7391 6.68481 90.5356 6.9807 90.4028 7.31054C90.2699 7.64038 90.2111 7.99595 90.2304 8.35163C90.2125 8.71157 90.2738 9.07103 90.4098 9.40408C90.5458 9.73713 90.7532 10.0355 91.0169 10.2776C91.5199 10.7331 92.1711 10.9849 92.8459 10.9849C93.5208 10.9849 94.172 10.7331 94.675 10.2776H94.6933ZM91.6387 8.35163C91.6329 8.18164 91.6606 8.01218 91.7203 7.85318C91.7799 7.69419 91.8704 7.54885 91.9863 7.4257C92.2119 7.19696 92.5174 7.06725 92.8368 7.06459C93.1459 7.06458 93.4435 7.18377 93.669 7.39793C93.9056 7.66876 94.0362 8.01784 94.0362 8.37941C94.0362 8.74097 93.9056 9.09005 93.669 9.36089C93.5578 9.47498 93.4254 9.56564 93.2794 9.62763C93.1334 9.68961 92.9768 9.72168 92.8185 9.722C92.6511 9.73021 92.4838 9.7041 92.3267 9.64523C92.1695 9.58636 92.0257 9.49594 91.904 9.37941C91.7906 9.23677 91.7083 9.07144 91.6626 8.89429C91.6169 8.71714 91.6087 8.53219 91.6387 8.35163Z" fill="white"/>
<path d="M87.4045 18.8145V16.2405H86.0418V21.2682H86.5723L89.2701 18.6756V21.2682H90.6236V16.2312H90.0475L87.4045 18.8145Z" fill="white"/>
<path d="M95.7724 16.2312L93.1294 18.8145V16.2405H91.7668V21.2682H92.2972L94.9859 18.6756V21.2682H96.3394V16.2312H95.7724Z" fill="white"/>
<path d="M83.9201 19.3422C83.841 19.5677 83.6897 19.7599 83.4903 19.8885C83.2972 20.0149 83.0709 20.0794 82.841 20.0736C82.6728 20.0817 82.5049 20.0547 82.3475 19.9941C82.1902 19.9336 82.0468 19.8409 81.9264 19.7218C81.7986 19.593 81.6998 19.4378 81.6367 19.2669C81.5735 19.0959 81.5476 18.9131 81.5606 18.7311C81.549 18.5511 81.5766 18.3707 81.6413 18.2027C81.7061 18.0347 81.8066 17.8832 81.9356 17.7588C82.0559 17.639 82.199 17.5451 82.3562 17.4831C82.5134 17.421 82.6815 17.3919 82.8501 17.3977C83.0803 17.3936 83.3074 17.4511 83.5086 17.5644C83.694 17.6638 83.8371 17.8285 83.911 18.0273V18.1477H85.237V17.9255C85.1164 17.3696 84.7889 16.8821 84.3225 16.5644C83.874 16.2445 83.3344 16.0819 82.7861 16.1014C82.3584 16.1096 81.9374 16.2107 81.5515 16.3977C81.1512 16.6113 80.816 16.9315 80.5821 17.3236C80.3199 17.7545 80.1865 18.2529 80.198 18.7588C80.1778 19.1168 80.2371 19.4748 80.3717 19.8065C80.5062 20.1382 80.7125 20.4352 80.9753 20.6755C81.4346 21.0861 82.0164 21.3292 82.628 21.3661C83.2396 21.403 83.8457 21.2316 84.3499 20.8792C84.8281 20.5483 85.1571 20.0388 85.2645 19.4625L85.3102 19.2496H83.9567L83.9201 19.3422Z" fill="white"/>
<path d="M63.2884 10.8794H66.2149V11.9534H67.4678V9.70343H66.8459V5.86084H63.2884L62.9317 8.35158C62.9252 8.39454 62.9252 8.43825 62.9317 8.48121C62.9056 8.72097 62.8659 8.95902 62.8128 9.19417C62.7741 9.32668 62.7087 9.44964 62.6208 9.55529C62.5764 9.60583 62.5212 9.64545 62.4593 9.67112C62.3975 9.6968 62.3308 9.70785 62.2641 9.70343H61.9714V11.9534H63.2884V10.8794ZM65.5198 7.09232V9.71269H63.9925C64.0194 9.66593 64.0408 9.61622 64.0566 9.56454C64.1361 9.28871 64.1942 9.00698 64.2303 8.72195L64.4315 7.10158L65.5198 7.09232Z" fill="white"/>
<path d="M66.0319 14.1293H63.0505V21.2589H64.5229V19.2311H66.0319C66.371 19.2442 66.709 19.185 67.0241 19.0574C67.3392 18.9298 67.6243 18.7366 67.861 18.4904C68.089 18.2528 68.2679 17.9716 68.3872 17.6631C68.5066 17.3547 68.564 17.0253 68.556 16.6941C68.5689 16.3548 68.5149 16.0162 68.3972 15.6983C68.2794 15.3803 68.1002 15.0893 67.8701 14.8422C67.6307 14.5989 67.3432 14.4095 67.0263 14.2866C66.7095 14.1638 66.3706 14.1101 66.0319 14.1293ZM66.8275 17.5459C66.728 17.6588 66.6051 17.7481 66.4675 17.8073C66.33 17.8665 66.1813 17.8943 66.0319 17.8885H64.5046V15.4626H66.0319C66.1819 15.4556 66.3316 15.4818 66.4706 15.5394C66.6096 15.597 66.7345 15.6845 66.8367 15.7959C67.0482 16.0341 67.1597 16.3463 67.1476 16.6663C67.1474 16.9938 67.023 17.3086 66.8001 17.5459H66.8275Z" fill="white"/>
<path d="M72.5068 10.5738L72.6257 10.5182L72.4336 9.37934L72.2233 9.47194C71.7101 9.68078 71.1553 9.76329 70.6046 9.71268C70.2746 9.72703 69.9504 9.62199 69.69 9.41638C69.5896 9.33299 69.5064 9.23036 69.4452 9.11438C69.384 8.9984 69.346 8.87133 69.3334 8.74045H72.6988V8.60156C72.7912 8.2544 72.8088 7.89119 72.7504 7.53654C72.692 7.18189 72.559 6.84409 72.3605 6.54601C72.1341 6.27065 71.8455 6.05453 71.5192 5.91592C71.1928 5.77732 70.8384 5.72031 70.4857 5.74971C69.8153 5.72323 69.1605 5.95859 68.6566 6.40712C68.4035 6.64082 68.2036 6.92754 68.0709 7.24733C67.9383 7.56713 67.876 7.91234 67.8884 8.25897C67.8589 8.62641 67.9109 8.99588 68.0407 9.34033C68.1704 9.68478 68.3746 9.99549 68.6383 10.2497C69.1678 10.7427 69.8673 11.0053 70.5863 10.9812C71.248 10.9877 71.9033 10.8487 72.5068 10.5738ZM70.4765 6.87008C70.7538 6.8586 71.026 6.94721 71.2447 7.12008C71.3171 7.17682 71.3772 7.24801 71.4212 7.32925C71.4653 7.41049 71.4924 7.50003 71.5008 7.59231H69.3608C69.4454 7.37077 69.602 7.185 69.8048 7.06552C70.0076 6.94604 70.2445 6.89998 70.4765 6.9349V6.87008Z" fill="white"/>
<path d="M72.708 16.3886C72.3138 16.2005 71.8815 16.1086 71.4459 16.1201C70.7715 16.1191 70.1204 16.3696 69.6169 16.8238C69.1278 17.3409 68.8547 18.0292 68.8547 18.7451C68.8547 19.461 69.1278 20.1493 69.6169 20.6664C70.1251 21.1108 70.7743 21.3553 71.4459 21.3553C72.1175 21.3553 72.7667 21.1108 73.275 20.6664C73.5384 20.4221 73.7454 20.122 73.8813 19.7876C74.0173 19.4531 74.0788 19.0925 74.0615 18.7312C74.0755 18.2179 73.9386 17.712 73.6682 17.2775C73.4371 16.8956 73.1043 16.5875 72.708 16.3886ZM72.708 18.7312C72.7191 18.9109 72.6932 19.091 72.6317 19.26C72.5703 19.429 72.4748 19.5832 72.3513 19.7127C72.1188 19.9347 71.8113 20.0584 71.4917 20.0584C71.172 20.0584 70.8645 19.9347 70.632 19.7127C70.5042 19.5839 70.4054 19.4288 70.3422 19.2578C70.2791 19.0868 70.2532 18.904 70.2662 18.722C70.2596 18.5527 70.2861 18.3837 70.3442 18.2248C70.4023 18.0659 70.4907 17.9202 70.6046 17.796C70.8302 17.5673 71.1357 17.4376 71.4551 17.4349C71.765 17.4311 72.0639 17.5508 72.2873 17.7683C72.4214 17.8889 72.5284 18.0373 72.601 18.2035C72.6736 18.3696 72.71 18.5496 72.708 18.7312Z" fill="white"/>
</g>
<defs>
<linearGradient id="paint0_linear" x1="25.4067" y1="7.13168" x2="22.0263" y2="11.4852" gradientUnits="userSpaceOnUse">
<stop stop-color="#E6E6E6"/>
<stop offset="1" stop-color="#B3B3B3"/>
</linearGradient>
<linearGradient id="paint1_linear" x1="20.3734" y1="10.0375" x2="17.0407" y2="14.7824" gradientUnits="userSpaceOnUse">
<stop stop-color="#00C0F3"/>
<stop offset="1" stop-color="#0089CF"/>
</linearGradient>
<linearGradient id="paint2_linear" x1="41.8258" y1="-3.10853" x2="24.2704" y2="16.6124" gradientUnits="userSpaceOnUse">
<stop stop-color="#00AEEF"/>
<stop offset="1" stop-color="#0066B3"/>
</linearGradient>
<linearGradient id="paint3_linear" x1="26.2697" y1="5.64036" x2="13.4928" y2="19.9901" gradientUnits="userSpaceOnUse">
<stop stop-color="#F15A22"/>
<stop offset="1" stop-color="#A71C20"/>
</linearGradient>
<clipPath id="clip0">
<rect width="107" height="25" fill="white"/>
</clipPath>
</defs>
</svg>
