<svg width="24" height="24" viewBox="0 0 24 24" fill="none" xmlns="http://www.w3.org/2000/svg">
<g clip-path="url(#clip0)">
<path d="M13.2857 10.8571C16.0077 10.8571 18.2143 8.65055 18.2143 5.92857C18.2143 3.2066 16.0077 1 13.2857 1C10.5638 1 8.35716 3.2066 8.35716 5.92857C8.35716 8.65055 10.5638 10.8571 13.2857 10.8571Z" stroke="#F5B51B" stroke-width="2" stroke-linecap="round" stroke-linejoin="round"/>
<path d="M12.4643 4.28589H13.2857V7.5716" stroke="#F5B51B" stroke-width="2" stroke-linecap="round" stroke-linejoin="round"/>
<path d="M5.43373 16.3947L5.06739 15.3806L0.964294 16.9017L3.52873 24.0001L7.63182 22.479L7.31281 21.596M5.43373 16.3947L6.60605 15.8877C7.46086 14.5356 9.17048 11.8314 13.2736 14.3666H16.3509C18.3053 14.3666 18.7702 16.4279 17.7457 17.4087M5.43373 16.3947L7.31281 21.596M12.2478 17.9157H16.3509C16.961 17.9157 17.4259 17.7149 17.7457 17.4087M17.7457 17.4087L20.9669 15.3806C22.5055 14.3665 24.0442 16.3946 22.5055 17.4087C22.5055 17.4087 18.4024 20.4509 16.3509 21.4649C14.2993 22.479 7.31281 21.596 7.31281 21.596" stroke="#F5B51B" stroke-width="2" stroke-linecap="round" stroke-linejoin="round"/>
</g>
<defs>
<clipPath id="clip0">
<rect width="24" height="24" fill="white"/>
</clipPath>
</defs>
</svg>
